#!OML:ASF F:\VICON\USERDATA\INSTALL\rory3\rory3.ASF
:FULLY-SPECIFIED
:DEGREES
49
root 0.896366 17.7338 -20.28 -2.39991 -0.610459 1.8778
lowerback 19.1307 0.140438 -1.99477
upperback 1.48957 0.0858295 3.36388
thorax -9.13077 0.196331 4.79706
lowerneck -3.5413 -11.0353 -9.72505
upperneck 33.9895 -14.2362 -1.33648
head 12.5203 -7.70878 -0.561055
rclavicle -5.96354e-015 3.18055e-015
rhumerus -78.7806 -57.068 -5.28065
rradius 28.7424
rwrist -29.8739
rhand -12.0109 -5.32053
rfingers 7.12502
rthumb 14.0465 -34.8259
lclavicle -5.96354e-015 3.18055e-015
lhumerus -53.8459 14.3639 75.0673
lradius 42.4422
lwrist 8.74979
lhand -8.61615 49.6564
lfingers 7.12502
lthumb 17.3159 78.905
rfemur 3.42012 1.83517 18.5338
rtibia 50.0555
rfoot 12.9499 -12.5937
rtoes 10.8985
lfemur -18.8891 -5.37535 -22.4915
ltibia 25.6058
lfoot -4.5714 0.957789
ltoes -5.91001
50
root 0.925388 17.743 -20.1289 -2.42135 -0.394732 2.38981
lowerback 19.4708 -0.0786997 -2.6177
upperback 1.24515 -0.34576 3.27425
thorax -9.54334 0.0289857 5.1899
lowerneck -3.39388 -10.7939 -9.62785
upperneck 34.0574 -13.8731 -1.51322
head 12.4754 -7.56505 -0.582832
rclavicle 2.0276e-014 -6.36111e-015
rhumerus -79.587 -56.7097 -4.10287
rradius 28.9517
rwrist -30.7125
rhand -11.9255 -5.54253
rfingers 7.12502
rthumb 14.1288 -35.0421
lclavicle 2.0276e-014 -6.36111e-015
lhumerus -54.6781 14.0976 75.0371
lradius 42.1467
lwrist 8.22901
lhand -8.52512 49.1831
lfingers 7.12502
lthumb 17.4035 78.424
rfemur 1.73971 1.59403 17.6904
rtibia 52.7281
rfoot 15.5045 -12.727
rtoes 15.8136
lfemur -18.2116 -5.461 -23.2794
ltibia 25.4203
lfoot -5.03076 0.8033
ltoes -4.63226
51
root 0.95195 17.7527 -19.9738 -2.53357 -0.0623235 2.97395
lowerback 19.6107 -0.229107 -3.20801
upperback 1.3024 -0.692483 3.11598
thorax -9.51383 -0.116419 5.45263
lowerneck -3.73155 -10.7282 -9.38255
upperneck 34.0714 -13.7482 -1.63542
head 12.5072 -7.49177 -0.670064
rclavicle -3.85642e-014 1.43125e-014
rhumerus -79.7017 -56.6086 -3.94048
rradius 29.4312
rwrist -32.59
rhand -12.525 -5.64882
rfingers 7.12502
rthumb 13.551 -35.1879
lclavicle -3.85642e-014 1.43125e-014
lhumerus -54.8383 13.4981 75.3341
lradius 41.9831
lwrist 7.7514
lhand -8.12903 49.7032
lfingers 7.12502
lthumb 17.7847 78.9099
rfemur 0.256362 1.25687 16.8048
rtibia 55.2582
rfoot 16.541 -13.2515
rtoes 18.9664
lfemur -17.3585 -5.61005 -24.1607
ltibia 25.1514
lfoot -5.08379 0.647605
ltoes -4.0048
52
root 0.973165 17.761 -19.827 -2.71863 0.436684 3.41939
lowerback 19.7543 -0.42862 -3.51878
upperback 1.5627 -1.05003 2.89437
thorax -9.26021 -0.29233 5.47942
lowerneck -4.50718 -10.7067 -8.93409
upperneck 34.0541 -13.698 -1.68485
head 12.6035 -7.41091 -0.799054
rclavicle -1.0138e-014 4.77083e-015
rhumerus -80.2766 -56.8906 -3.47689
rradius 30.0001
rwrist -34.4281
rhand -12.7656 -5.77505
rfingers 7.12502
rthumb 13.3192 -35.3294
lclavicle -1.0138e-014 4.77083e-015
lhumerus -54.3186 12.9702 75.471
lradius 41.2536
lwrist 7.08416
lhand -7.61195 49.4926
lfingers 7.12502
lthumb 18.2822 78.6535
rfemur -1.0985 0.670006 16.1095
rtibia 57.6901
rfoot 17.0687 -13.7105
rtoes 21.8539
lfemur -16.4671 -5.79284 -24.8829
ltibia 24.8615
lfoot -5.19958 0.3825
ltoes -4.03235
53
root 0.986825 17.7677 -19.6878 -2.96524 0.936036 3.83802
lowerback 20.0625 -0.757632 -4.14818
upperback 1.52312 -1.6339 2.87428
thorax -9.3862 -0.539657 5.99356
lowerneck -4.2894 -10.4052 -9.09996
upperneck 33.9642 -13.2626 -1.66895
head 12.5196 -7.24418 -0.691073
rclavicle 3.16068e-014 -3.18055e-015
rhumerus -80.5391 -56.6826 -2.76337
rradius 30.3497
rwrist -35.5897
rhand -12.7051 -5.58345
rfingers 7.12502
rthumb 13.3775 -35.134
lclavicle 3.16068e-014 -3.18055e-015
lhumerus -54.6262 12.9733 75.3992
lradius 40.4265
lwrist 6.33032
lhand -7.18618 48.7962
lfingers 7.12502
lthumb 18.6918 77.9182
rfemur -2.39973 0.084446 15.5262
rtibia 60.0093
rfoot 17.4705 -14.0737
rtoes 24.5887
lfemur -15.5558 -5.87532 -25.5503
ltibia 24.59
lfoot -5.25956 0.0279813
ltoes -3.43208
54
root 1.00987 17.7719 -19.5498 -3.04695 0.899798 4.27456
lowerback 20.241 -0.704586 -4.56248
upperback 1.59072 -1.68059 2.69904
thorax -9.39636 -0.549749 6.05658
lowerneck -4.59917 -10.3751 -8.76515
upperneck 33.9951 -13.2247 -1.73676
head 12.5545 -7.19183 -0.78163
rclavicle -7.55382e-015 1.59028e-015
rhumerus -82.5971 -56.9313 -0.286451
rradius 30.7538
rwrist -36.425
rhand -12.4641 -5.20088
rfingers 7.12502
rthumb 13.6097 -34.736
lclavicle -7.55382e-015 1.59028e-015
lhumerus -54.3735 12.182 75.6814
lradius 39.7334
lwrist 5.89713
lhand -6.96573 48.454
lfingers 7.12502
lthumb 18.9038 77.5554
rfemur -4.05087 -0.180332 14.8308
rtibia 62.2589
rfoot 15.9662 -13.6134
rtoes 22.4863
lfemur -14.819 -5.90938 -26.1967
ltibia 24.3578
lfoot -5.36115 0.144931
ltoes -2.83447
55
root 1.03605 17.7755 -19.3968 -3.08511 0.549137 4.55277
lowerback 20.1062 -0.732715 -5.04564
upperback 1.41699 -1.82666 2.67222
thorax -9.48169 -0.592376 6.34653
lowerneck -3.83784 -10.0364 -8.71798
upperneck 33.7497 -12.7567 -1.90101
head 12.26 -7.01414 -0.724189
rclavicle -7.4743e-014 -1.59028e-014
rhumerus -83.3114 -56.4931 0.992679
rradius 31.1113
rwrist -37.0884
rhand -11.8616 -4.8052
rfingers 7.12502
rthumb 14.1903 -34.3005
lclavicle -7.4743e-014 -1.59028e-014
lhumerus -55.0272 11.8871 75.6303
lradius 39.2513
lwrist 5.38381
lhand -6.58725 48.7851
lfingers 7.12502
lthumb 19.2678 77.8506
rfemur -5.72049 -0.183233 14.33
rtibia 64.3063
rfoot 14.7781 -13.4327
rtoes 21.297
lfemur -14.0778 -5.7576 -26.6571
ltibia 24.2103
lfoot -5.66073 0.339014
ltoes -2.88728
56
root 1.04828 17.775 -19.2608 -3.32072 0.747016 4.80448
lowerback 20.48 -0.788992 -5.24495
upperback 1.68038 -1.97651 2.49675
thorax -9.37133 -0.670474 6.3146
lowerneck -4.85322 -10.0221 -8.10564
upperneck 33.906 -12.6802 -2.11503
head 12.4517 -6.91955 -0.95638
rclavicle -1.59028e-014 2.94201e-014
rhumerus -84.996 -57.0382 2.92891
rradius 31.6706
rwrist -37.727
rhand -11.3079 -4.56805
rfingers 7.12502
rthumb 14.7239 -34.0251
lclavicle -1.59028e-014 2.94201e-014
lhumerus -54.219 11.3868 75.6657
lradius 38.4382
lwrist 4.73793
lhand -6.267 48.7672
lfingers 7.12502
lthumb 19.5757 77.8017
rfemur -7.04874 -0.607476 13.96
rtibia 66.153
rfoot 13.397 -13.4984
rtoes 20.4069
lfemur -13.2369 -5.57162 -27.1024
ltibia 24.11
lfoot -5.95168 0.0911897
ltoes -3.73246
57
root 1.06691 17.7786 -19.1017 -3.46389 0.777787 4.85849
lowerback 20.4557 -0.965909 -5.49048
upperback 1.56212 -2.25953 2.56723
thorax -9.43626 -0.787724 6.616
lowerneck -4.32231 -9.68743 -8.13077
upperneck 33.8177 -12.1988 -2.24688
head 12.2821 -6.73591 -0.899305
rclavicle 8.34896e-015 1.27222e-014
rhumerus -85.0479 -56.5389 3.59187
rradius 32.2068
rwrist -38.7813
rhand -10.3878 -4.15848
rfingers 7.12502
rthumb 15.6102 -33.5486
lclavicle 8.34896e-015 1.27222e-014
lhumerus -54.4856 11.4109 75.4955
lradius 37.6819
lwrist 3.9616
lhand -6.18381 48.7541
lfingers 7.12502
lthumb 19.6556 77.7804
rfemur -8.3242 -0.896007 13.8126
rtibia 67.7385
rfoot 11.6891 -13.6253
rtoes 20.0911
lfemur -12.4795 -5.46433 -27.3182
ltibia 24.1097
lfoot -6.40691 0.0116074
ltoes -4.12538
58
root 1.08084 17.7793 -18.9552 -3.75186 1.10582 5.07995
lowerback 20.7681 -1.14586 -5.81302
upperback 1.51775 -2.59022 2.53686
thorax -9.59417 -0.922846 6.87861
lowerneck -4.11787 -9.38802 -7.92636
upperneck 33.7933 -11.7434 -2.48375
head 12.1791 -6.54257 -0.944151
rclavicle -6.75868e-015 5.56597e-015
rhumerus -85.4773 -56.2044 4.47953
rradius 32.9647
rwrist -39.7508
rhand -9.56414 -3.97171
rfingers 7.12502
rthumb 16.4033 -33.2981
lclavicle -6.75868e-015 5.56597e-015
lhumerus -54.4565 11.3487 75.2718
lradius 36.9102
lwrist 3.16564
lhand -6.01198 48.776
lfingers 7.12502
lthumb 19.8208 77.7853
rfemur -9.39896 -1.45571 13.4598
rtibia 69.1476
rfoot 10.0067 -13.8612
rtoes 20.8551
lfemur -11.5921 -5.6586 -27.7192
ltibia 24.1227
lfoot -6.9046 -0.101534
ltoes -3.77395
59
root 1.09828 17.7791 -18.82 -3.54029 0.88962 5.22169
lowerback 20.6175 -1.11222 -5.77529
upperback 1.52004 -2.55254 2.3126
thorax -9.52738 -0.915453 6.58585
lowerneck -4.60339 -9.42034 -7.58807
upperneck 34.0577 -11.8429 -2.39275
head 12.3663 -6.5318 -1.01669
rclavicle 2.90226e-014 7.95139e-016
rhumerus -86.6504 -56.0954 5.57997
rradius 33.9477
rwrist -40.7004
rhand -9.52255 -3.73386
rfingers 7.12502
rthumb 16.4434 -33.057
lclavicle 2.90226e-014 7.95139e-016
lhumerus -54.0357 11.0168 74.8928
lradius 36.3429
lwrist 2.44279
lhand -5.55314 48.9423
lfingers 7.12502
lthumb 20.2619 77.9055
rfemur -11.3221 -1.61917 13.2114
rtibia 70.4234
rfoot 8.9038 -13.9082
rtoes 20.788
lfemur -11.3615 -5.54261 -27.9674
ltibia 24.1631
lfoot -7.26112 0.0416497
ltoes -3.35041
60
root 1.11366 17.7831 -18.6768 -3.52884 0.785887 5.2858
lowerback 19.9922 -1.46363 -6.31459
upperback 1.4178 -3.08484 2.53926
thorax -9.1747 -1.15867 7.25785
lowerneck -3.2846 -8.78049 -8.2357
upperneck 33.6557 -10.9501 -2.32564
head 11.965 -6.22331 -0.685504
rclavicle -3.63776e-014 7.95139e-016
rhumerus -84.9069 -55.4699 4.47325
rradius 34.6928
rwrist -41.1786
rhand -9.26125 -3.39763
rfingers 7.12502
rthumb 16.6949 -32.6997
lclavicle -3.63776e-014 7.95139e-016
lhumerus -55.0394 11.968 74.3538
lradius 36.4776
lwrist 1.9162
lhand -5.26281 49.6766
lfingers 7.12502
lthumb 20.5409 78.6099
rfemur -12.8513 -1.7273 13.0932
rtibia 71.4364
rfoot 7.59404 -14.0728
rtoes 20.0706
lfemur -10.8263 -5.42535 -28.1608
ltibia 24.0903
lfoot -7.54077 0.0793185
ltoes -3.28325
61
root 1.12933 17.7891 -18.5252 -3.62155 0.941172 5.35548
lowerback 20.2404 -1.48804 -6.29092
upperback 1.4493 -3.13273 2.45904
thorax -9.27399 -1.17925 7.18185
lowerneck -3.96525 -8.70594 -7.8247
upperneck 34.0647 -10.8052 -2.47967
head 12.2213 -6.12352 -0.843339
rclavicle -1.59028e-014 1.03368e-014
rhumerus -86.0276 -55.2605 5.91247
rradius 35.3521
rwrist -40.893
rhand -7.81335 -2.74371
rfingers 7.12502
rthumb 18.0884 -31.9226
lclavicle -1.59028e-014 1.03368e-014
lhumerus -54.7517 11.6707 74.1792
lradius 36.3713
lwrist 1.6117
lhand -5.54578 50.1082
lfingers 7.12502
lthumb 20.269 79.0706
rfemur -13.994 -1.98832 12.9522
rtibia 72.1831
rfoot 5.81135 -14.146
rtoes 18.3832
lfemur -10.0842 -5.38756 -28.3883
ltibia 23.9973
lfoot -7.84424 -0.00978546
ltoes -3.29393
62
root 1.13946 17.8005 -18.3776 -3.72587 1.27587 5.44167
lowerback 20.7204 -1.63514 -6.22234
upperback 1.3567 -3.35379 2.32162
thorax -9.61749 -1.26819 7.08429
lowerneck -4.57666 -8.62073 -7.55696
upperneck 34.5558 -10.6864 -2.48785
head 12.5252 -6.03753 -0.929288
rclavicle 2.88238e-014 -1.35174e-014
rhumerus -86.8478 -54.8081 6.96387
rradius 35.8167
rwrist -40.0189
rhand -6.18848 -2.38041
rfingers 7.12502
rthumb 19.6512 -31.4072
lclavicle 2.88238e-014 -1.35174e-014
lhumerus -54.5381 11.5918 73.6814
lradius 35.9525
lwrist 1.24368
lhand -6.28573 49.6865
lfingers 7.12502
lthumb 19.5577 78.7228
rfemur -15.0749 -2.34619 12.8615
rtibia 72.7038
rfoot 3.75372 -14.3307
rtoes 17.9506
lfemur -9.31625 -5.48596 -28.6065
ltibia 23.8557
lfoot -8.06754 -0.169346
ltoes -2.64406
63
root 1.15287 17.8013 -18.236 -3.83695 1.51035 5.4962
lowerback 20.3366 -1.80273 -6.14736
upperback 1.81 -3.53656 2.19248
thorax -8.88431 -1.41405 6.89344
lowerneck -5.34487 -8.4687 -7.24662
upperneck 34.57 -10.4855 -2.37539
head 12.6638 -5.88841 -0.953597
rclavicle -2.84262e-014 -1.59028e-015
rhumerus -88.0943 -55.1272 8.50957
rradius 36.1252
rwrist -39.4377
rhand -4.69663 -2.5417
rfingers 7.12502
rthumb 21.0849 -31.4153
lclavicle -2.84262e-014 -1.59028e-015
lhumerus -53.5286 11.6886 73.3506
lradius 35.5982
lwrist 0.905751
lhand -6.36039 50.0531
lfingers 7.12502
lthumb 19.4859 79.0967
rfemur -16.1686 -2.68216 12.7972
rtibia 73.0253
rfoot 1.56107 -14.5625
rtoes 19.1028
lfemur -8.62486 -5.61731 -28.8171
ltibia 23.7586
lfoot -8.31843 -0.15601
ltoes -2.85562
